<svg viewBox="0 0 680 326" xmlns="http://www.w3.org/2000/svg"><defs><style>
text{font-family:Arial,sans-serif;}
.h{font-family:Arial,sans-serif;font-weight:700;fill:#2B2A22;}
.sub{fill:#6E6A60;}
.tag{fill:#6E6A60;font-weight:700;letter-spacing:1.1px;}
.box{fill:#FFFFFF;stroke:#D8D5CC;stroke-width:1.25;}
.bt{fill:#2B2A22;font-weight:700;}
.bs{fill:#6E6A60;}
.chip{fill:#FFFFFF;stroke:#E7E4DC;stroke-width:1;}
.ct{fill:#2B2A22;font-weight:600;}
.edge{stroke:#6E6A60;stroke-width:1.4;fill:none;}
.edged{stroke:#6E6A60;stroke-width:1.2;fill:none;stroke-dasharray:5 4;}
.lbl{fill:#6E6A60;}
.act{fill:#FFFFFF;stroke:#D8D5CC;stroke-width:1.25;}
.an{fill:#2B2A22;font-weight:700;}
.life{stroke:#E7E4DC;stroke-width:1.2;stroke-dasharray:3 4;}
.fwd{stroke:#6E6A60;stroke-width:1.4;fill:none;}
.ret{stroke:#6E6A60;stroke-width:1.2;fill:none;stroke-dasharray:5 4;}
.ml{fill:#2B2A22;}
.note{fill:#FFFFFF;stroke:#D8D5CC;stroke-width:1;}
.nt{fill:#6E6A60;font-style:italic;}
.ent{fill:#FFFFFF;stroke:#D8D5CC;stroke-width:1.25;}
.det{fill:#FFFFFF;stroke:#E7E4DC;stroke-width:1;stroke-dasharray:5 4;}
.en{fill:#2B2A22;font-weight:700;}
.fld{fill:#6E6A60;font-family:Consolas,monospace;}
.div{stroke:#E7E4DC;stroke-width:1;}
.rel{stroke:#6E6A60;stroke-width:1.4;fill:none;}
.reld{stroke:#6E6A60;stroke-width:1.2;fill:none;stroke-dasharray:5 4;}
.card{fill:#2B2A22;font-weight:700;}
.cap{fill:#6E6A60;}
.st{fill:#FFFFFF;stroke:#D8D5CC;stroke-width:1.4;}
.done{fill:#FFFFFF;stroke:#1E7A3E;stroke-width:1.6;}
.term{fill:#FFFFFF;stroke:#E7E4DC;stroke-width:1.2;stroke-dasharray:5 4;}
.sl{fill:#2B2A22;font-weight:700;}
.eng{fill:#FFFFFF;stroke:#D8D5CC;stroke-width:1.4;}
.step{fill:#2B2A22;font-weight:600;}
.tot{fill:#2B2A22;font-weight:700;}
.hd{fill:#6E6A60;font-weight:700;}
.rl{fill:#2B2A22;font-weight:600;}
.grid{stroke:#E7E4DC;stroke-width:1;}
.app{fill:#2B2A22;font-weight:600;}
.no{fill:#6E6A60;}
</style></defs><rect x="0" y="0" width="680" height="326" fill="#FFFFFF"/>
<text class="h" x="24" y="24" font-size="18">Phân quyền — 6 vai trò</text>
<g class="hd" font-size="9.5" text-anchor="middle">
<text x="193" y="62">App</text><text x="271" y="62">Đơn hàng</text><text x="349" y="62">Thực đơn</text><text x="432" y="62">Khách/CRM</text><text x="520" y="62">Marketing</text><text x="610" y="62">Cấu hình</text>
</g>
<g class="grid">
<line x1="24" y1="68" x2="656" y2="68"/><line x1="24" y1="104" x2="656" y2="104"/><line x1="24" y1="140" x2="656" y2="140"/><line x1="24" y1="176" x2="656" y2="176"/><line x1="24" y1="212" x2="656" y2="212"/><line x1="24" y1="248" x2="656" y2="248"/><line x1="24" y1="284" x2="656" y2="284"/>
<line x1="154" y1="68" x2="154" y2="284"/><line x1="232" y1="68" x2="232" y2="284"/><line x1="310" y1="68" x2="310" y2="284"/><line x1="388" y1="68" x2="388" y2="284"/><line x1="476" y1="68" x2="476" y2="284"/><line x1="564" y1="68" x2="564" y2="284"/>
</g>
<g class="rl" font-size="11">
<text x="30" y="90">Admin</text><text x="30" y="126">Chủ cửa hàng</text><text x="30" y="162">NV cửa hàng</text><text x="30" y="198">Quản lý bếp</text><text x="30" y="234">NV bếp</text><text x="30" y="270">Khách hàng</text>
</g>
<g font-size="13" text-anchor="middle" font-weight="700">
<g class="app" font-size="10">
<text x="193" y="90">Quản trị</text><text x="193" y="126">Quản trị</text><text x="193" y="162">Quản trị</text><text x="193" y="198">Bếp</text><text x="193" y="234">Bếp</text><text x="193" y="270">Khách</text>
</g>
<text x="271" y="90" fill="#1E7A3E">✓</text><text x="349" y="90" fill="#1E7A3E">✓</text><text x="432" y="90" fill="#1E7A3E">✓</text><text x="520" y="90" fill="#1E7A3E">✓</text><text x="610" y="90" fill="#1E7A3E">✓</text>
<text x="271" y="126" fill="#C99A3C">◐</text><text x="349" y="126" fill="#1E7A3E">✓</text><text x="432" y="126" fill="#1E7A3E">✓</text><text x="520" y="126" fill="#1E7A3E">✓</text><text x="610" y="126" fill="#C99A3C">◐</text>
<text x="271" y="162" fill="#C99A3C">◐</text><text x="349" y="162" fill="#C99A3C">◐</text><text x="432" y="162" fill="#C99A3C">◐</text><text class="no" x="520" y="160">—</text><text class="no" x="610" y="160">—</text>
<text x="271" y="198" fill="#C99A3C">◐</text><text class="no" x="349" y="196">—</text><text class="no" x="432" y="196">—</text><text class="no" x="520" y="196">—</text><text x="610" y="198" fill="#C99A3C">◐</text>
<text x="271" y="234" fill="#C99A3C">◐</text><text class="no" x="349" y="232">—</text><text class="no" x="432" y="232">—</text><text class="no" x="520" y="232">—</text><text class="no" x="610" y="232">—</text>
<text x="271" y="270" fill="#C99A3C">◐</text><text class="no" x="349" y="268">—</text><text class="no" x="432" y="268">—</text><text class="no" x="520" y="268">—</text><text class="no" x="610" y="268">—</text>
</g>
<text class="sub" x="24" y="304" font-size="9.5">✓ đầy đủ · ◐ giới hạn (1 cửa hàng / đơn của mình) · — không.  Admin = toàn chuỗi; cửa hàng &amp; bếp giới hạn theo phạm vi.</text></svg>